<svg width="26" height="27" viewBox="0 0 26 27" fill="none" xmlns="http://www.w3.org/2000/svg">
<path d="M19.6 0.699219H6C2.68629 0.699219 0 3.38551 0 6.69922V20.2992C0 23.6129 2.68629 26.2992 6 26.2992H19.6C22.9137 26.2992 25.6 23.6129 25.6 20.2992V6.69922C25.6 3.38551 22.9137 0.699219 19.6 0.699219Z" fill="url(#paint0_radial_199_33)"/>
<path d="M19.6 0.699219H6C2.68629 0.699219 0 3.38551 0 6.69922V20.2992C0 23.6129 2.68629 26.2992 6 26.2992H19.6C22.9137 26.2992 25.6 23.6129 25.6 20.2992V6.69922C25.6 3.38551 22.9137 0.699219 19.6 0.699219Z" fill="url(#paint1_radial_199_33)"/>
<path d="M12.8017 3.5C10.0859 3.5 9.74498 3.5119 8.67838 3.5604C7.61378 3.6092 6.88708 3.7777 6.25128 4.025C5.59348 4.2804 5.03558 4.6221 4.47978 5.1781C3.92348 5.734 3.58178 6.2919 3.32558 6.9494C3.07758 7.5854 2.90888 8.3124 2.86098 9.3765C2.81328 10.4432 2.80078 10.7842 2.80078 13.5001C2.80078 16.216 2.81278 16.5558 2.86118 17.6224C2.91018 18.687 3.07868 19.4137 3.32578 20.0495C3.58138 20.7073 3.92308 21.2652 4.47908 21.821C5.03478 22.3773 5.59268 22.7198 6.24998 22.9752C6.88628 23.2225 7.61308 23.391 8.67748 23.4398C9.74418 23.4883 10.0848 23.5002 12.8005 23.5002C15.5166 23.5002 15.8564 23.4883 16.923 23.4398C17.9876 23.391 18.7151 23.2225 19.3514 22.9752C20.0089 22.7198 20.566 22.3773 21.1216 21.821C21.6779 21.2652 22.0195 20.7073 22.2758 20.0498C22.5216 19.4137 22.6904 18.6868 22.7404 17.6226C22.7883 16.556 22.8008 16.216 22.8008 13.5001C22.8008 10.7842 22.7883 10.4434 22.7404 9.3767C22.6904 8.3121 22.5216 7.5855 22.2758 6.9497C22.0195 6.2919 21.6779 5.734 21.1216 5.1781C20.5654 4.6219 20.0091 4.2802 19.3508 4.0251C18.7133 3.7777 17.9862 3.6091 16.9216 3.5604C15.8549 3.5119 15.5153 3.5 12.7986 3.5H12.8017ZM11.9046 5.3021C12.1709 5.3017 12.468 5.3021 12.8017 5.3021C15.4718 5.3021 15.7882 5.3117 16.8426 5.3596C17.8176 5.4042 18.3468 5.5671 18.6993 5.704C19.166 5.8852 19.4987 6.1019 19.8485 6.452C20.1985 6.802 20.4151 7.1353 20.5968 7.602C20.7337 7.954 20.8968 8.4832 20.9412 9.4582C20.9891 10.5124 20.9995 10.829 20.9995 13.4978C20.9995 16.1666 20.9891 16.4833 20.9412 17.5374C20.8966 18.5124 20.7337 19.0416 20.5968 19.3937C20.4156 19.8604 20.1985 20.1927 19.8485 20.5425C19.4985 20.8925 19.1662 21.1091 18.6993 21.2904C18.3472 21.4279 17.8176 21.5904 16.8426 21.635C15.7884 21.6829 15.4718 21.6933 12.8017 21.6933C10.1315 21.6933 9.81498 21.6829 8.76088 21.635C7.78588 21.59 7.25668 21.4271 6.90388 21.2902C6.43728 21.1089 6.10388 20.8923 5.75388 20.5423C5.40388 20.1923 5.18728 19.8598 5.00558 19.3929C4.86868 19.0408 4.70558 18.5116 4.66118 17.5366C4.61328 16.4824 4.60368 16.1658 4.60368 13.4953C4.60368 10.8249 4.61328 10.5099 4.66118 9.4557C4.70578 8.4807 4.86868 7.9515 5.00558 7.599C5.18688 7.1323 5.40388 6.799 5.75398 6.449C6.10398 6.099 6.43728 5.8823 6.90398 5.7007C7.25648 5.5632 7.78588 5.4007 8.76088 5.3559C9.68338 5.3142 10.0409 5.3017 11.9046 5.2996V5.3021ZM18.1397 6.9625C17.4772 6.9625 16.9397 7.4995 16.9397 8.1621C16.9397 8.8246 17.4772 9.3621 18.1397 9.3621C18.8022 9.3621 19.3397 8.8246 19.3397 8.1621C19.3397 7.4996 18.8022 6.9621 18.1397 6.9621V6.9625ZM12.8017 8.3646C9.96568 8.3646 7.66628 10.664 7.66628 13.5001C7.66628 16.3362 9.96568 18.6345 12.8017 18.6345C15.6378 18.6345 17.9364 16.3362 17.9364 13.5001C17.9364 10.6641 15.6376 8.3646 12.8015 8.3646H12.8017ZM12.8017 10.1667C14.6426 10.1667 16.1351 11.659 16.1351 13.5001C16.1351 15.341 14.6426 16.8335 12.8017 16.8335C10.9607 16.8335 9.46838 15.341 9.46838 13.5001C9.46838 11.659 10.9607 10.1667 12.8017 10.1667Z" fill="white"/>
<defs>
<radialGradient id="paint0_radial_199_33" cx="0" cy="0" r="1" gradientUnits="userSpaceOnUse" gradientTransform="translate(6.8 28.2709) rotate(-90) scale(25.3715 23.5975)">
<stop stop-color="#FFDD55"/>
<stop offset="0.1" stop-color="#FFDD55"/>
<stop offset="0.5" stop-color="#FF543E"/>
<stop offset="1" stop-color="#C837AB"/>
</radialGradient>
<radialGradient id="paint1_radial_199_33" cx="0" cy="0" r="1" gradientUnits="userSpaceOnUse" gradientTransform="translate(-4.2881 2.54332) rotate(78.681) scale(11.3412 46.7488)">
<stop stop-color="#3771C8"/>
<stop offset="0.128" stop-color="#3771C8"/>
<stop offset="1" stop-color="#6600FF" stop-opacity="0"/>
</radialGradient>
</defs>
</svg>
